<?xml version="1.0" encoding="utf-8" standalone="no"?>
<!DOCTYPE svg PUBLIC "-//W3C//DTD SVG 1.1//EN"
  "http://www.w3.org/Graphics/SVG/1.1/DTD/svg11.dtd">
<svg xmlns:xlink="http://www.w3.org/1999/xlink" width="864pt" height="720pt" viewBox="0 0 864 720" xmlns="http://www.w3.org/2000/svg" version="1.1">
 <metadata>
  <rdf:RDF xmlns:dc="http://purl.org/dc/elements/1.1/" xmlns:cc="http://creativecommons.org/ns#" xmlns:rdf="http://www.w3.org/1999/02/22-rdf-syntax-ns#">
   <cc:Work>
    <dc:type rdf:resource="http://purl.org/dc/dcmitype/StillImage"/>
    <dc:date>2026-01-22T12:09:44.655203</dc:date>
    <dc:format>image/svg+xml</dc:format>
    <dc:creator>
     <cc:Agent>
      <dc:title>Matplotlib v3.10.3, https://matplotlib.org/</dc:title>
     </cc:Agent>
    </dc:creator>
   </cc:Work>
  </rdf:RDF>
 </metadata>
 <defs>
  <style type="text/css">*{stroke-linejoin: round; stroke-linecap: butt}</style>
 </defs>
 <g id="figure_1">
  <g id="patch_1">
   <path d="M 0 720 
L 864 720 
L 864 0 
L 0 0 
z
" style="fill: #ffffff"/>
  </g>
  <g id="axes_1">
   <g id="patch_2">
    <path d="M 51.05 692.12 
L 612.31 692.12 
L 612.31 26.16 
L 51.05 26.16 
z
" style="fill: #ffffff"/>
   </g>
   <g id="matplotlib.axis_1">
    <g id="xtick_1">
     <g id="line2d_1">
      <defs>
       <path id="mdeb31e0e12" d="M 0 0 
L 0 3.5 
" style="stroke: #000000; stroke-width: 0.8"/>
      </defs>
      <g>
       <use xlink:href="#mdeb31e0e12" x="76.561818" y="692.12" style="stroke: #000000; stroke-width: 0.8"/>
      </g>
     </g>
     <g id="text_1">
      <!-- 2014 -->
      <g transform="translate(63.836818 706.718438) scale(0.1 -0.1)">
       <defs>
        <path id="DejaVuSans-32" d="M 1228 531 
L 3431 531 
L 3431 0 
L 469 0 
L 469 531 
Q 828 903 1448 1529 
Q 2069 2156 2228 2338 
Q 2531 2678 2651 2914 
Q 2772 3150 2772 3378 
Q 2772 3750 2511 3984 
Q 2250 4219 1831 4219 
Q 1534 4219 1204 4116 
Q 875 4013 500 3803 
L 500 4441 
Q 881 4594 1212 4672 
Q 1544 4750 1819 4750 
Q 2544 4750 2975 4387 
Q 3406 4025 3406 3419 
Q 3406 3131 3298 2873 
Q 3191 2616 2906 2266 
Q 2828 2175 2409 1742 
Q 1991 1309 1228 531 
z
" transform="scale(0.015625)"/>
        <path id="DejaVuSans-30" d="M 2034 4250 
Q 1547 4250 1301 3770 
Q 1056 3291 1056 2328 
Q 1056 1369 1301 889 
Q 1547 409 2034 409 
Q 2525 409 2770 889 
Q 3016 1369 3016 2328 
Q 3016 3291 2770 3770 
Q 2525 4250 2034 4250 
z
M 2034 4750 
Q 2819 4750 3233 4129 
Q 3647 3509 3647 2328 
Q 3647 1150 3233 529 
Q 2819 -91 2034 -91 
Q 1250 -91 836 529 
Q 422 1150 422 2328 
Q 422 3509 836 4129 
Q 1250 4750 2034 4750 
z
" transform="scale(0.015625)"/>
        <path id="DejaVuSans-31" d="M 794 531 
L 1825 531 
L 1825 4091 
L 703 3866 
L 703 4441 
L 1819 4666 
L 2450 4666 
L 2450 531 
L 3481 531 
L 3481 0 
L 794 0 
L 794 531 
z
" transform="scale(0.015625)"/>
        <path id="DejaVuSans-34" d="M 2419 4116 
L 825 1625 
L 2419 1625 
L 2419 4116 
z
M 2253 4666 
L 3047 4666 
L 3047 1625 
L 3713 1625 
L 3713 1100 
L 3047 1100 
L 3047 0 
L 2419 0 
L 2419 1100 
L 313 1100 
L 313 1709 
L 2253 4666 
z
" transform="scale(0.015625)"/>
       </defs>
       <use xlink:href="#DejaVuSans-32"/>
       <use xlink:href="#DejaVuSans-30" transform="translate(63.623047 0)"/>
       <use xlink:href="#DejaVuSans-31" transform="translate(127.246094 0)"/>
       <use xlink:href="#DejaVuSans-34" transform="translate(190.869141 0)"/>
      </g>
     </g>
    </g>
    <g id="xtick_2">
     <g id="line2d_2">
      <g>
       <use xlink:href="#mdeb31e0e12" x="169.332066" y="692.12" style="stroke: #000000; stroke-width: 0.8"/>
      </g>
     </g>
     <g id="text_2">
      <!-- 2016 -->
      <g transform="translate(156.607066 706.718438) scale(0.1 -0.1)">
       <defs>
        <path id="DejaVuSans-36" d="M 2113 2584 
Q 1688 2584 1439 2293 
Q 1191 2003 1191 1497 
Q 1191 994 1439 701 
Q 1688 409 2113 409 
Q 2538 409 2786 701 
Q 3034 994 3034 1497 
Q 3034 2003 2786 2293 
Q 2538 2584 2113 2584 
z
M 3366 4563 
L 3366 3988 
Q 3128 4100 2886 4159 
Q 2644 4219 2406 4219 
Q 1781 4219 1451 3797 
Q 1122 3375 1075 2522 
Q 1259 2794 1537 2939 
Q 1816 3084 2150 3084 
Q 2853 3084 3261 2657 
Q 3669 2231 3669 1497 
Q 3669 778 3244 343 
Q 2819 -91 2113 -91 
Q 1303 -91 875 529 
Q 447 1150 447 2328 
Q 447 3434 972 4092 
Q 1497 4750 2381 4750 
Q 2619 4750 2861 4703 
Q 3103 4656 3366 4563 
z
" transform="scale(0.015625)"/>
       </defs>
       <use xlink:href="#DejaVuSans-32"/>
       <use xlink:href="#DejaVuSans-30" transform="translate(63.623047 0)"/>
       <use xlink:href="#DejaVuSans-31" transform="translate(127.246094 0)"/>
       <use xlink:href="#DejaVuSans-36" transform="translate(190.869141 0)"/>
      </g>
     </g>
    </g>
    <g id="xtick_3">
     <g id="line2d_3">
      <g>
       <use xlink:href="#mdeb31e0e12" x="262.102314" y="692.12" style="stroke: #000000; stroke-width: 0.8"/>
      </g>
     </g>
     <g id="text_3">
      <!-- 2018 -->
      <g transform="translate(249.377314 706.718438) scale(0.1 -0.1)">
       <defs>
        <path id="DejaVuSans-38" d="M 2034 2216 
Q 1584 2216 1326 1975 
Q 1069 1734 1069 1313 
Q 1069 891 1326 650 
Q 1584 409 2034 409 
Q 2484 409 2743 651 
Q 3003 894 3003 1313 
Q 3003 1734 2745 1975 
Q 2488 2216 2034 2216 
z
M 1403 2484 
Q 997 2584 770 2862 
Q 544 3141 544 3541 
Q 544 4100 942 4425 
Q 1341 4750 2034 4750 
Q 2731 4750 3128 4425 
Q 3525 4100 3525 3541 
Q 3525 3141 3298 2862 
Q 3072 2584 2669 2484 
Q 3125 2378 3379 2068 
Q 3634 1759 3634 1313 
Q 3634 634 3220 271 
Q 2806 -91 2034 -91 
Q 1263 -91 848 271 
Q 434 634 434 1313 
Q 434 1759 690 2068 
Q 947 2378 1403 2484 
z
M 1172 3481 
Q 1172 3119 1398 2916 
Q 1625 2713 2034 2713 
Q 2441 2713 2670 2916 
Q 2900 3119 2900 3481 
Q 2900 3844 2670 4047 
Q 2441 4250 2034 4250 
Q 1625 4250 1398 4047 
Q 1172 3844 1172 3481 
z
" transform="scale(0.015625)"/>
       </defs>
       <use xlink:href="#DejaVuSans-32"/>
       <use xlink:href="#DejaVuSans-30" transform="translate(63.623047 0)"/>
       <use xlink:href="#DejaVuSans-31" transform="translate(127.246094 0)"/>
       <use xlink:href="#DejaVuSans-38" transform="translate(190.869141 0)"/>
      </g>
     </g>
    </g>
    <g id="xtick_4">
     <g id="line2d_4">
      <g>
       <use xlink:href="#mdeb31e0e12" x="354.872562" y="692.12" style="stroke: #000000; stroke-width: 0.8"/>
      </g>
     </g>
     <g id="text_4">
      <!-- 2020 -->
      <g transform="translate(342.147562 706.718438) scale(0.1 -0.1)">
       <use xlink:href="#DejaVuSans-32"/>
       <use xlink:href="#DejaVuSans-30" transform="translate(63.623047 0)"/>
       <use xlink:href="#DejaVuSans-32" transform="translate(127.246094 0)"/>
       <use xlink:href="#DejaVuSans-30" transform="translate(190.869141 0)"/>
      </g>
     </g>
    </g>
    <g id="xtick_5">
     <g id="line2d_5">
      <g>
       <use xlink:href="#mdeb31e0e12" x="447.64281" y="692.12" style="stroke: #000000; stroke-width: 0.8"/>
      </g>
     </g>
     <g id="text_5">
      <!-- 2022 -->
      <g transform="translate(434.91781 706.718438) scale(0.1 -0.1)">
       <use xlink:href="#DejaVuSans-32"/>
       <use xlink:href="#DejaVuSans-30" transform="translate(63.623047 0)"/>
       <use xlink:href="#DejaVuSans-32" transform="translate(127.246094 0)"/>
       <use xlink:href="#DejaVuSans-32" transform="translate(190.869141 0)"/>
      </g>
     </g>
    </g>
    <g id="xtick_6">
     <g id="line2d_6">
      <g>
       <use xlink:href="#mdeb31e0e12" x="540.413058" y="692.12" style="stroke: #000000; stroke-width: 0.8"/>
      </g>
     </g>
     <g id="text_6">
      <!-- 2024 -->
      <g transform="translate(527.688058 706.718438) scale(0.1 -0.1)">
       <use xlink:href="#DejaVuSans-32"/>
       <use xlink:href="#DejaVuSans-30" transform="translate(63.623047 0)"/>
       <use xlink:href="#DejaVuSans-32" transform="translate(127.246094 0)"/>
       <use xlink:href="#DejaVuSans-34" transform="translate(190.869141 0)"/>
      </g>
     </g>
    </g>
   </g>
   <g id="matplotlib.axis_2">
    <g id="ytick_1">
     <g id="line2d_7">
      <defs>
       <path id="m90e01dccb3" d="M 0 0 
L -3.5 0 
" style="stroke: #000000; stroke-width: 0.8"/>
      </defs>
      <g>
       <use xlink:href="#m90e01dccb3" x="51.05" y="662.700593" style="stroke: #000000; stroke-width: 0.8"/>
      </g>
     </g>
     <g id="text_7">
      <!-- 0 -->
      <g transform="translate(37.6875 666.499812) scale(0.1 -0.1)">
       <use xlink:href="#DejaVuSans-30"/>
      </g>
     </g>
    </g>
    <g id="ytick_2">
     <g id="line2d_8">
      <g>
       <use xlink:href="#m90e01dccb3" x="51.05" y="577.550357" style="stroke: #000000; stroke-width: 0.8"/>
      </g>
     </g>
     <g id="text_8">
      <!-- 100 -->
      <g transform="translate(24.9625 581.349575) scale(0.1 -0.1)">
       <use xlink:href="#DejaVuSans-31"/>
       <use xlink:href="#DejaVuSans-30" transform="translate(63.623047 0)"/>
       <use xlink:href="#DejaVuSans-30" transform="translate(127.246094 0)"/>
      </g>
     </g>
    </g>
    <g id="ytick_3">
     <g id="line2d_9">
      <g>
       <use xlink:href="#m90e01dccb3" x="51.05" y="492.40012" style="stroke: #000000; stroke-width: 0.8"/>
      </g>
     </g>
     <g id="text_9">
      <!-- 200 -->
      <g transform="translate(24.9625 496.199339) scale(0.1 -0.1)">
       <use xlink:href="#DejaVuSans-32"/>
       <use xlink:href="#DejaVuSans-30" transform="translate(63.623047 0)"/>
       <use xlink:href="#DejaVuSans-30" transform="translate(127.246094 0)"/>
      </g>
     </g>
    </g>
    <g id="ytick_4">
     <g id="line2d_10">
      <g>
       <use xlink:href="#m90e01dccb3" x="51.05" y="407.249884" style="stroke: #000000; stroke-width: 0.8"/>
      </g>
     </g>
     <g id="text_10">
      <!-- 300 -->
      <g transform="translate(24.9625 411.049102) scale(0.1 -0.1)">
       <defs>
        <path id="DejaVuSans-33" d="M 2597 2516 
Q 3050 2419 3304 2112 
Q 3559 1806 3559 1356 
Q 3559 666 3084 287 
Q 2609 -91 1734 -91 
Q 1441 -91 1130 -33 
Q 819 25 488 141 
L 488 750 
Q 750 597 1062 519 
Q 1375 441 1716 441 
Q 2309 441 2620 675 
Q 2931 909 2931 1356 
Q 2931 1769 2642 2001 
Q 2353 2234 1838 2234 
L 1294 2234 
L 1294 2753 
L 1863 2753 
Q 2328 2753 2575 2939 
Q 2822 3125 2822 3475 
Q 2822 3834 2567 4026 
Q 2313 4219 1838 4219 
Q 1578 4219 1281 4162 
Q 984 4106 628 3988 
L 628 4550 
Q 988 4650 1302 4700 
Q 1616 4750 1894 4750 
Q 2613 4750 3031 4423 
Q 3450 4097 3450 3541 
Q 3450 3153 3228 2886 
Q 3006 2619 2597 2516 
z
" transform="scale(0.015625)"/>
       </defs>
       <use xlink:href="#DejaVuSans-33"/>
       <use xlink:href="#DejaVuSans-30" transform="translate(63.623047 0)"/>
       <use xlink:href="#DejaVuSans-30" transform="translate(127.246094 0)"/>
      </g>
     </g>
    </g>
    <g id="ytick_5">
     <g id="line2d_11">
      <g>
       <use xlink:href="#m90e01dccb3" x="51.05" y="322.099647" style="stroke: #000000; stroke-width: 0.8"/>
      </g>
     </g>
     <g id="text_11">
      <!-- 400 -->
      <g transform="translate(24.9625 325.898866) scale(0.1 -0.1)">
       <use xlink:href="#DejaVuSans-34"/>
       <use xlink:href="#DejaVuSans-30" transform="translate(63.623047 0)"/>
       <use xlink:href="#DejaVuSans-30" transform="translate(127.246094 0)"/>
      </g>
     </g>
    </g>
    <g id="ytick_6">
     <g id="line2d_12">
      <g>
       <use xlink:href="#m90e01dccb3" x="51.05" y="236.949411" style="stroke: #000000; stroke-width: 0.8"/>
      </g>
     </g>
     <g id="text_12">
      <!-- 500 -->
      <g transform="translate(24.9625 240.748629) scale(0.1 -0.1)">
       <defs>
        <path id="DejaVuSans-35" d="M 691 4666 
L 3169 4666 
L 3169 4134 
L 1269 4134 
L 1269 2991 
Q 1406 3038 1543 3061 
Q 1681 3084 1819 3084 
Q 2600 3084 3056 2656 
Q 3513 2228 3513 1497 
Q 3513 744 3044 326 
Q 2575 -91 1722 -91 
Q 1428 -91 1123 -41 
Q 819 9 494 109 
L 494 744 
Q 775 591 1075 516 
Q 1375 441 1709 441 
Q 2250 441 2565 725 
Q 2881 1009 2881 1497 
Q 2881 1984 2565 2268 
Q 2250 2553 1709 2553 
Q 1456 2553 1204 2497 
Q 953 2441 691 2322 
L 691 4666 
z
" transform="scale(0.015625)"/>
       </defs>
       <use xlink:href="#DejaVuSans-35"/>
       <use xlink:href="#DejaVuSans-30" transform="translate(63.623047 0)"/>
       <use xlink:href="#DejaVuSans-30" transform="translate(127.246094 0)"/>
      </g>
     </g>
    </g>
    <g id="ytick_7">
     <g id="line2d_13">
      <g>
       <use xlink:href="#m90e01dccb3" x="51.05" y="151.799174" style="stroke: #000000; stroke-width: 0.8"/>
      </g>
     </g>
     <g id="text_13">
      <!-- 600 -->
      <g transform="translate(24.9625 155.598393) scale(0.1 -0.1)">
       <use xlink:href="#DejaVuSans-36"/>
       <use xlink:href="#DejaVuSans-30" transform="translate(63.623047 0)"/>
       <use xlink:href="#DejaVuSans-30" transform="translate(127.246094 0)"/>
      </g>
     </g>
    </g>
    <g id="ytick_8">
     <g id="line2d_14">
      <g>
       <use xlink:href="#m90e01dccb3" x="51.05" y="66.648937" style="stroke: #000000; stroke-width: 0.8"/>
      </g>
     </g>
     <g id="text_14">
      <!-- 700 -->
      <g transform="translate(24.9625 70.448156) scale(0.1 -0.1)">
       <defs>
        <path id="DejaVuSans-37" d="M 525 4666 
L 3525 4666 
L 3525 4397 
L 1831 0 
L 1172 0 
L 2766 4134 
L 525 4134 
L 525 4666 
z
" transform="scale(0.015625)"/>
       </defs>
       <use xlink:href="#DejaVuSans-37"/>
       <use xlink:href="#DejaVuSans-30" transform="translate(63.623047 0)"/>
       <use xlink:href="#DejaVuSans-30" transform="translate(127.246094 0)"/>
      </g>
     </g>
    </g>
    <g id="text_15">
     <!-- Enrollment -->
     <g transform="translate(18.882813 386.324375) rotate(-90) scale(0.1 -0.1)">
      <defs>
       <path id="DejaVuSans-45" d="M 628 4666 
L 3578 4666 
L 3578 4134 
L 1259 4134 
L 1259 2753 
L 3481 2753 
L 3481 2222 
L 1259 2222 
L 1259 531 
L 3634 531 
L 3634 0 
L 628 0 
L 628 4666 
z
" transform="scale(0.015625)"/>
       <path id="DejaVuSans-6e" d="M 3513 2113 
L 3513 0 
L 2938 0 
L 2938 2094 
Q 2938 2591 2744 2837 
Q 2550 3084 2163 3084 
Q 1697 3084 1428 2787 
Q 1159 2491 1159 1978 
L 1159 0 
L 581 0 
L 581 3500 
L 1159 3500 
L 1159 2956 
Q 1366 3272 1645 3428 
Q 1925 3584 2291 3584 
Q 2894 3584 3203 3211 
Q 3513 2838 3513 2113 
z
" transform="scale(0.015625)"/>
       <path id="DejaVuSans-72" d="M 2631 2963 
Q 2534 3019 2420 3045 
Q 2306 3072 2169 3072 
Q 1681 3072 1420 2755 
Q 1159 2438 1159 1844 
L 1159 0 
L 581 0 
L 581 3500 
L 1159 3500 
L 1159 2956 
Q 1341 3275 1631 3429 
Q 1922 3584 2338 3584 
Q 2397 3584 2469 3576 
Q 2541 3569 2628 3553 
L 2631 2963 
z
" transform="scale(0.015625)"/>
       <path id="DejaVuSans-6f" d="M 1959 3097 
Q 1497 3097 1228 2736 
Q 959 2375 959 1747 
Q 959 1119 1226 758 
Q 1494 397 1959 397 
Q 2419 397 2687 759 
Q 2956 1122 2956 1747 
Q 2956 2369 2687 2733 
Q 2419 3097 1959 3097 
z
M 1959 3584 
Q 2709 3584 3137 3096 
Q 3566 2609 3566 1747 
Q 3566 888 3137 398 
Q 2709 -91 1959 -91 
Q 1206 -91 779 398 
Q 353 888 353 1747 
Q 353 2609 779 3096 
Q 1206 3584 1959 3584 
z
" transform="scale(0.015625)"/>
       <path id="DejaVuSans-6c" d="M 603 4863 
L 1178 4863 
L 1178 0 
L 603 0 
L 603 4863 
z
" transform="scale(0.015625)"/>
       <path id="DejaVuSans-6d" d="M 3328 2828 
Q 3544 3216 3844 3400 
Q 4144 3584 4550 3584 
Q 5097 3584 5394 3201 
Q 5691 2819 5691 2113 
L 5691 0 
L 5113 0 
L 5113 2094 
Q 5113 2597 4934 2840 
Q 4756 3084 4391 3084 
Q 3944 3084 3684 2787 
Q 3425 2491 3425 1978 
L 3425 0 
L 2847 0 
L 2847 2094 
Q 2847 2600 2669 2842 
Q 2491 3084 2119 3084 
Q 1678 3084 1418 2786 
Q 1159 2488 1159 1978 
L 1159 0 
L 581 0 
L 581 3500 
L 1159 3500 
L 1159 2956 
Q 1356 3278 1631 3431 
Q 1906 3584 2284 3584 
Q 2666 3584 2933 3390 
Q 3200 3197 3328 2828 
z
" transform="scale(0.015625)"/>
       <path id="DejaVuSans-65" d="M 3597 1894 
L 3597 1613 
L 953 1613 
Q 991 1019 1311 708 
Q 1631 397 2203 397 
Q 2534 397 2845 478 
Q 3156 559 3463 722 
L 3463 178 
Q 3153 47 2828 -22 
Q 2503 -91 2169 -91 
Q 1331 -91 842 396 
Q 353 884 353 1716 
Q 353 2575 817 3079 
Q 1281 3584 2069 3584 
Q 2775 3584 3186 3129 
Q 3597 2675 3597 1894 
z
M 3022 2063 
Q 3016 2534 2758 2815 
Q 2500 3097 2075 3097 
Q 1594 3097 1305 2825 
Q 1016 2553 972 2059 
L 3022 2063 
z
" transform="scale(0.015625)"/>
       <path id="DejaVuSans-74" d="M 1172 4494 
L 1172 3500 
L 2356 3500 
L 2356 3053 
L 1172 3053 
L 1172 1153 
Q 1172 725 1289 603 
Q 1406 481 1766 481 
L 2356 481 
L 2356 0 
L 1766 0 
Q 1100 0 847 248 
Q 594 497 594 1153 
L 594 3053 
L 172 3053 
L 172 3500 
L 594 3500 
L 594 4494 
L 1172 4494 
z
" transform="scale(0.015625)"/>
      </defs>
      <use xlink:href="#DejaVuSans-45"/>
      <use xlink:href="#DejaVuSans-6e" transform="translate(63.183594 0)"/>
      <use xlink:href="#DejaVuSans-72" transform="translate(126.5625 0)"/>
      <use xlink:href="#DejaVuSans-6f" transform="translate(165.425781 0)"/>
      <use xlink:href="#DejaVuSans-6c" transform="translate(226.607422 0)"/>
      <use xlink:href="#DejaVuSans-6c" transform="translate(254.390625 0)"/>
      <use xlink:href="#DejaVuSans-6d" transform="translate(282.173828 0)"/>
      <use xlink:href="#DejaVuSans-65" transform="translate(379.585938 0)"/>
      <use xlink:href="#DejaVuSans-6e" transform="translate(441.109375 0)"/>
      <use xlink:href="#DejaVuSans-74" transform="translate(504.488281 0)"/>
     </g>
    </g>
   </g>
   <g id="line2d_15">
    <path d="M 76.561818 136.472131 
L 122.946942 145.838657 
L 169.332066 188.413776 
L 215.71719 196.077297 
L 262.102314 218.216359 
L 308.487438 224.176875 
L 354.872562 239.503918 
L 401.257686 202.889316 
L 447.64281 182.453259 
L 494.027934 184.156264 
L 540.413058 167.126217 
L 586.798182 162.868705 
" clip-path="url(#pca9d5044ba)" style="fill: none; stroke: #1f77b4; stroke-width: 1.5; stroke-linecap: square"/>
    <defs>
     <path id="mab713cc6bd" d="M 0 1.5 
C 0.397805 1.5 0.77937 1.341951 1.06066 1.06066 
C 1.341951 0.77937 1.5 0.397805 1.5 0 
C 1.5 -0.397805 1.341951 -0.77937 1.06066 -1.06066 
C 0.77937 -1.341951 0.397805 -1.5 0 -1.5 
C -0.397805 -1.5 -0.77937 -1.341951 -1.06066 -1.06066 
C -1.341951 -0.77937 -1.5 -0.397805 -1.5 0 
C -1.5 0.397805 -1.341951 0.77937 -1.06066 1.06066 
C -0.77937 1.341951 -0.397805 1.5 0 1.5 
z
" style="stroke: #1f77b4"/>
    </defs>
    <g clip-path="url(#pca9d5044ba)">
     <use xlink:href="#mab713cc6bd" x="76.561818" y="136.472131" style="fill: #1f77b4; stroke: #1f77b4"/>
     <use xlink:href="#mab713cc6bd" x="122.946942" y="145.838657" style="fill: #1f77b4; stroke: #1f77b4"/>
     <use xlink:href="#mab713cc6bd" x="169.332066" y="188.413776" style="fill: #1f77b4; stroke: #1f77b4"/>
     <use xlink:href="#mab713cc6bd" x="215.71719" y="196.077297" style="fill: #1f77b4; stroke: #1f77b4"/>
     <use xlink:href="#mab713cc6bd" x="262.102314" y="218.216359" style="fill: #1f77b4; stroke: #1f77b4"/>
     <use xlink:href="#mab713cc6bd" x="308.487438" y="224.176875" style="fill: #1f77b4; stroke: #1f77b4"/>
     <use xlink:href="#mab713cc6bd" x="354.872562" y="239.503918" style="fill: #1f77b4; stroke: #1f77b4"/>
     <use xlink:href="#mab713cc6bd" x="401.257686" y="202.889316" style="fill: #1f77b4; stroke: #1f77b4"/>
     <use xlink:href="#mab713cc6bd" x="447.64281" y="182.453259" style="fill: #1f77b4; stroke: #1f77b4"/>
     <use xlink:href="#mab713cc6bd" x="494.027934" y="184.156264" style="fill: #1f77b4; stroke: #1f77b4"/>
     <use xlink:href="#mab713cc6bd" x="540.413058" y="167.126217" style="fill: #1f77b4; stroke: #1f77b4"/>
     <use xlink:href="#mab713cc6bd" x="586.798182" y="162.868705" style="fill: #1f77b4; stroke: #1f77b4"/>
    </g>
   </g>
   <g id="line2d_16">
    <path d="M 169.332066 153.502179 
L 215.71719 104.115042 
L 262.102314 76.015463 
L 308.487438 56.430909 
L 354.872562 127.957108 
L 401.257686 107.521051 
L 447.64281 133.917624 
L 494.027934 130.511615 
L 540.413058 144.987155 
L 586.798182 191.819785 
" clip-path="url(#pca9d5044ba)" style="fill: none; stroke: #ff7f0e; stroke-width: 1.5; stroke-linecap: square"/>
    <defs>
     <path id="mc461bcc433" d="M 0 1.5 
C 0.397805 1.5 0.77937 1.341951 1.06066 1.06066 
C 1.341951 0.77937 1.5 0.397805 1.5 0 
C 1.5 -0.397805 1.341951 -0.77937 1.06066 -1.06066 
C 0.77937 -1.341951 0.397805 -1.5 0 -1.5 
C -0.397805 -1.5 -0.77937 -1.341951 -1.06066 -1.06066 
C -1.341951 -0.77937 -1.5 -0.397805 -1.5 0 
C -1.5 0.397805 -1.341951 0.77937 -1.06066 1.06066 
C -0.77937 1.341951 -0.397805 1.5 0 1.5 
z
" style="stroke: #ff7f0e"/>
    </defs>
    <g clip-path="url(#pca9d5044ba)">
     <use xlink:href="#mc461bcc433" x="169.332066" y="153.502179" style="fill: #ff7f0e; stroke: #ff7f0e"/>
     <use xlink:href="#mc461bcc433" x="215.71719" y="104.115042" style="fill: #ff7f0e; stroke: #ff7f0e"/>
     <use xlink:href="#mc461bcc433" x="262.102314" y="76.015463" style="fill: #ff7f0e; stroke: #ff7f0e"/>
     <use xlink:href="#mc461bcc433" x="308.487438" y="56.430909" style="fill: #ff7f0e; stroke: #ff7f0e"/>
     <use xlink:href="#mc461bcc433" x="354.872562" y="127.957108" style="fill: #ff7f0e; stroke: #ff7f0e"/>
     <use xlink:href="#mc461bcc433" x="401.257686" y="107.521051" style="fill: #ff7f0e; stroke: #ff7f0e"/>
     <use xlink:href="#mc461bcc433" x="447.64281" y="133.917624" style="fill: #ff7f0e; stroke: #ff7f0e"/>
     <use xlink:href="#mc461bcc433" x="494.027934" y="130.511615" style="fill: #ff7f0e; stroke: #ff7f0e"/>
     <use xlink:href="#mc461bcc433" x="540.413058" y="144.987155" style="fill: #ff7f0e; stroke: #ff7f0e"/>
     <use xlink:href="#mc461bcc433" x="586.798182" y="191.819785" style="fill: #ff7f0e; stroke: #ff7f0e"/>
    </g>
   </g>
   <g id="line2d_17">
    <path d="M 76.561818 190.11678 
L 122.946942 158.611193 
L 169.332066 269.3065 
L 215.71719 242.058425 
L 262.102314 220.770866 
L 308.487438 206.295325 
L 354.872562 283.782041 
L 401.257686 271.009505 
L 447.64281 274.415515 
L 494.027934 274.415515 
L 540.413058 265.900491 
L 586.798182 261.642979 
" clip-path="url(#pca9d5044ba)" style="fill: none; stroke: #2ca02c; stroke-width: 1.5; stroke-linecap: square"/>
    <defs>
     <path id="mb0e2db6a61" d="M 0 1.5 
C 0.397805 1.5 0.77937 1.341951 1.06066 1.06066 
C 1.341951 0.77937 1.5 0.397805 1.5 0 
C 1.5 -0.397805 1.341951 -0.77937 1.06066 -1.06066 
C 0.77937 -1.341951 0.397805 -1.5 0 -1.5 
C -0.397805 -1.5 -0.77937 -1.341951 -1.06066 -1.06066 
C -1.341951 -0.77937 -1.5 -0.397805 -1.5 0 
C -1.5 0.397805 -1.341951 0.77937 -1.06066 1.06066 
C -0.77937 1.341951 -0.397805 1.5 0 1.5 
z
" style="stroke: #2ca02c"/>
    </defs>
    <g clip-path="url(#pca9d5044ba)">
     <use xlink:href="#mb0e2db6a61" x="76.561818" y="190.11678" style="fill: #2ca02c; stroke: #2ca02c"/>
     <use xlink:href="#mb0e2db6a61" x="122.946942" y="158.611193" style="fill: #2ca02c; stroke: #2ca02c"/>
     <use xlink:href="#mb0e2db6a61" x="169.332066" y="269.3065" style="fill: #2ca02c; stroke: #2ca02c"/>
     <use xlink:href="#mb0e2db6a61" x="215.71719" y="242.058425" style="fill: #2ca02c; stroke: #2ca02c"/>
     <use xlink:href="#mb0e2db6a61" x="262.102314" y="220.770866" style="fill: #2ca02c; stroke: #2ca02c"/>
     <use xlink:href="#mb0e2db6a61" x="308.487438" y="206.295325" style="fill: #2ca02c; stroke: #2ca02c"/>
     <use xlink:href="#mb0e2db6a61" x="354.872562" y="283.782041" style="fill: #2ca02c; stroke: #2ca02c"/>
     <use xlink:href="#mb0e2db6a61" x="401.257686" y="271.009505" style="fill: #2ca02c; stroke: #2ca02c"/>
     <use xlink:href="#mb0e2db6a61" x="447.64281" y="274.415515" style="fill: #2ca02c; stroke: #2ca02c"/>
     <use xlink:href="#mb0e2db6a61" x="494.027934" y="274.415515" style="fill: #2ca02c; stroke: #2ca02c"/>
     <use xlink:href="#mb0e2db6a61" x="540.413058" y="265.900491" style="fill: #2ca02c; stroke: #2ca02c"/>
     <use xlink:href="#mb0e2db6a61" x="586.798182" y="261.642979" style="fill: #2ca02c; stroke: #2ca02c"/>
    </g>
   </g>
   <g id="line2d_18">
    <path d="M 76.561818 68.351942 
L 122.946942 99.006027 
L 169.332066 136.472131 
L 215.71719 159.462695 
L 262.102314 191.819785 
L 308.487438 183.304762 
L 354.872562 187.562273 
L 401.257686 188.413776 
L 447.64281 196.928799 
L 494.027934 217.364856 
L 540.413058 242.058425 
L 586.798182 282.079036 
" clip-path="url(#pca9d5044ba)" style="fill: none; stroke: #d62728; stroke-width: 1.5; stroke-linecap: square"/>
    <defs>
     <path id="mfa6fe4c792" d="M 0 1.5 
C 0.397805 1.5 0.77937 1.341951 1.06066 1.06066 
C 1.341951 0.77937 1.5 0.397805 1.5 0 
C 1.5 -0.397805 1.341951 -0.77937 1.06066 -1.06066 
C 0.77937 -1.341951 0.397805 -1.5 0 -1.5 
C -0.397805 -1.5 -0.77937 -1.341951 -1.06066 -1.06066 
C -1.341951 -0.77937 -1.5 -0.397805 -1.5 0 
C -1.5 0.397805 -1.341951 0.77937 -1.06066 1.06066 
C -0.77937 1.341951 -0.397805 1.5 0 1.5 
z
" style="stroke: #d62728"/>
    </defs>
    <g clip-path="url(#pca9d5044ba)">
     <use xlink:href="#mfa6fe4c792" x="76.561818" y="68.351942" style="fill: #d62728; stroke: #d62728"/>
     <use xlink:href="#mfa6fe4c792" x="122.946942" y="99.006027" style="fill: #d62728; stroke: #d62728"/>
     <use xlink:href="#mfa6fe4c792" x="169.332066" y="136.472131" style="fill: #d62728; stroke: #d62728"/>
     <use xlink:href="#mfa6fe4c792" x="215.71719" y="159.462695" style="fill: #d62728; stroke: #d62728"/>
     <use xlink:href="#mfa6fe4c792" x="262.102314" y="191.819785" style="fill: #d62728; stroke: #d62728"/>
     <use xlink:href="#mfa6fe4c792" x="308.487438" y="183.304762" style="fill: #d62728; stroke: #d62728"/>
     <use xlink:href="#mfa6fe4c792" x="354.872562" y="187.562273" style="fill: #d62728; stroke: #d62728"/>
     <use xlink:href="#mfa6fe4c792" x="401.257686" y="188.413776" style="fill: #d62728; stroke: #d62728"/>
     <use xlink:href="#mfa6fe4c792" x="447.64281" y="196.928799" style="fill: #d62728; stroke: #d62728"/>
     <use xlink:href="#mfa6fe4c792" x="494.027934" y="217.364856" style="fill: #d62728; stroke: #d62728"/>
     <use xlink:href="#mfa6fe4c792" x="540.413058" y="242.058425" style="fill: #d62728; stroke: #d62728"/>
     <use xlink:href="#mfa6fe4c792" x="586.798182" y="282.079036" style="fill: #d62728; stroke: #d62728"/>
    </g>
   </g>
   <g id="line2d_19">
    <path d="M 76.561818 133.066122 
L 122.946942 115.184572 
L 169.332066 166.274714 
L 215.71719 185.007766 
L 262.102314 199.483306 
L 308.487438 199.483306 
L 354.872562 268.454998 
L 401.257686 273.564012 
L 447.64281 271.009505 
L 494.027934 259.939974 
L 540.413058 274.415515 
L 586.798182 290.59406 
" clip-path="url(#pca9d5044ba)" style="fill: none; stroke: #9467bd; stroke-width: 1.5; stroke-linecap: square"/>
    <defs>
     <path id="m938bed0168" d="M 0 1.5 
C 0.397805 1.5 0.77937 1.341951 1.06066 1.06066 
C 1.341951 0.77937 1.5 0.397805 1.5 0 
C 1.5 -0.397805 1.341951 -0.77937 1.06066 -1.06066 
C 0.77937 -1.341951 0.397805 -1.5 0 -1.5 
C -0.397805 -1.5 -0.77937 -1.341951 -1.06066 -1.06066 
C -1.341951 -0.77937 -1.5 -0.397805 -1.5 0 
C -1.5 0.397805 -1.341951 0.77937 -1.06066 1.06066 
C -0.77937 1.341951 -0.397805 1.5 0 1.5 
z
" style="stroke: #9467bd"/>
    </defs>
    <g clip-path="url(#pca9d5044ba)">
     <use xlink:href="#m938bed0168" x="76.561818" y="133.066122" style="fill: #9467bd; stroke: #9467bd"/>
     <use xlink:href="#m938bed0168" x="122.946942" y="115.184572" style="fill: #9467bd; stroke: #9467bd"/>
     <use xlink:href="#m938bed0168" x="169.332066" y="166.274714" style="fill: #9467bd; stroke: #9467bd"/>
     <use xlink:href="#m938bed0168" x="215.71719" y="185.007766" style="fill: #9467bd; stroke: #9467bd"/>
     <use xlink:href="#m938bed0168" x="262.102314" y="199.483306" style="fill: #9467bd; stroke: #9467bd"/>
     <use xlink:href="#m938bed0168" x="308.487438" y="199.483306" style="fill: #9467bd; stroke: #9467bd"/>
     <use xlink:href="#m938bed0168" x="354.872562" y="268.454998" style="fill: #9467bd; stroke: #9467bd"/>
     <use xlink:href="#m938bed0168" x="401.257686" y="273.564012" style="fill: #9467bd; stroke: #9467bd"/>
     <use xlink:href="#m938bed0168" x="447.64281" y="271.009505" style="fill: #9467bd; stroke: #9467bd"/>
     <use xlink:href="#m938bed0168" x="494.027934" y="259.939974" style="fill: #9467bd; stroke: #9467bd"/>
     <use xlink:href="#m938bed0168" x="540.413058" y="274.415515" style="fill: #9467bd; stroke: #9467bd"/>
     <use xlink:href="#m938bed0168" x="586.798182" y="290.59406" style="fill: #9467bd; stroke: #9467bd"/>
    </g>
   </g>
   <g id="line2d_20">
    <path d="M 76.561818 92.194008 
L 122.946942 64.945933 
L 169.332066 199.483306 
L 215.71719 219.919363 
L 262.102314 256.533965 
L 308.487438 255.682463 
L 354.872562 326.357159 
L 401.257686 318.693638 
L 447.64281 304.218097 
L 494.027934 294.851571 
L 540.413058 301.66359 
L 586.798182 290.59406 
" clip-path="url(#pca9d5044ba)" style="fill: none; stroke: #8c564b; stroke-width: 1.5; stroke-linecap: square"/>
    <defs>
     <path id="mf12c696209" d="M 0 1.5 
C 0.397805 1.5 0.77937 1.341951 1.06066 1.06066 
C 1.341951 0.77937 1.5 0.397805 1.5 0 
C 1.5 -0.397805 1.341951 -0.77937 1.06066 -1.06066 
C 0.77937 -1.341951 0.397805 -1.5 0 -1.5 
C -0.397805 -1.5 -0.77937 -1.341951 -1.06066 -1.06066 
C -1.341951 -0.77937 -1.5 -0.397805 -1.5 0 
C -1.5 0.397805 -1.341951 0.77937 -1.06066 1.06066 
C -0.77937 1.341951 -0.397805 1.5 0 1.5 
z
" style="stroke: #8c564b"/>
    </defs>
    <g clip-path="url(#pca9d5044ba)">
     <use xlink:href="#mf12c696209" x="76.561818" y="92.194008" style="fill: #8c564b; stroke: #8c564b"/>
     <use xlink:href="#mf12c696209" x="122.946942" y="64.945933" style="fill: #8c564b; stroke: #8c564b"/>
     <use xlink:href="#mf12c696209" x="169.332066" y="199.483306" style="fill: #8c564b; stroke: #8c564b"/>
     <use xlink:href="#mf12c696209" x="215.71719" y="219.919363" style="fill: #8c564b; stroke: #8c564b"/>
     <use xlink:href="#mf12c696209" x="262.102314" y="256.533965" style="fill: #8c564b; stroke: #8c564b"/>
     <use xlink:href="#mf12c696209" x="308.487438" y="255.682463" style="fill: #8c564b; stroke: #8c564b"/>
     <use xlink:href="#mf12c696209" x="354.872562" y="326.357159" style="fill: #8c564b; stroke: #8c564b"/>
     <use xlink:href="#mf12c696209" x="401.257686" y="318.693638" style="fill: #8c564b; stroke: #8c564b"/>
     <use xlink:href="#mf12c696209" x="447.64281" y="304.218097" style="fill: #8c564b; stroke: #8c564b"/>
     <use xlink:href="#mf12c696209" x="494.027934" y="294.851571" style="fill: #8c564b; stroke: #8c564b"/>
     <use xlink:href="#mf12c696209" x="540.413058" y="301.66359" style="fill: #8c564b; stroke: #8c564b"/>
     <use xlink:href="#mf12c696209" x="586.798182" y="290.59406" style="fill: #8c564b; stroke: #8c564b"/>
    </g>
   </g>
   <g id="line2d_21">
    <path d="M 76.561818 643.967541 
L 122.946942 625.234489 
L 169.332066 619.273973 
L 215.71719 626.937494 
L 262.102314 623.531484 
L 308.487438 615.016461 
L 354.872562 592.877399 
L 401.257686 525.608712 
L 447.64281 593.728902 
L 494.027934 595.431906 
L 540.413058 605.649935 
" clip-path="url(#pca9d5044ba)" style="fill: none; stroke: #e377c2; stroke-width: 1.5; stroke-linecap: square"/>
    <defs>
     <path id="m12428ec841" d="M 0 1.5 
C 0.397805 1.5 0.77937 1.341951 1.06066 1.06066 
C 1.341951 0.77937 1.5 0.397805 1.5 0 
C 1.5 -0.397805 1.341951 -0.77937 1.06066 -1.06066 
C 0.77937 -1.341951 0.397805 -1.5 0 -1.5 
C -0.397805 -1.5 -0.77937 -1.341951 -1.06066 -1.06066 
C -1.341951 -0.77937 -1.5 -0.397805 -1.5 0 
C -1.5 0.397805 -1.341951 0.77937 -1.06066 1.06066 
C -0.77937 1.341951 -0.397805 1.5 0 1.5 
z
" style="stroke: #e377c2"/>
    </defs>
    <g clip-path="url(#pca9d5044ba)">
     <use xlink:href="#m12428ec841" x="76.561818" y="643.967541" style="fill: #e377c2; stroke: #e377c2"/>
     <use xlink:href="#m12428ec841" x="122.946942" y="625.234489" style="fill: #e377c2; stroke: #e377c2"/>
     <use xlink:href="#m12428ec841" x="169.332066" y="619.273973" style="fill: #e377c2; stroke: #e377c2"/>
     <use xlink:href="#m12428ec841" x="215.71719" y="626.937494" style="fill: #e377c2; stroke: #e377c2"/>
     <use xlink:href="#m12428ec841" x="262.102314" y="623.531484" style="fill: #e377c2; stroke: #e377c2"/>
     <use xlink:href="#m12428ec841" x="308.487438" y="615.016461" style="fill: #e377c2; stroke: #e377c2"/>
     <use xlink:href="#m12428ec841" x="354.872562" y="592.877399" style="fill: #e377c2; stroke: #e377c2"/>
     <use xlink:href="#m12428ec841" x="401.257686" y="525.608712" style="fill: #e377c2; stroke: #e377c2"/>
     <use xlink:href="#m12428ec841" x="447.64281" y="593.728902" style="fill: #e377c2; stroke: #e377c2"/>
     <use xlink:href="#m12428ec841" x="494.027934" y="595.431906" style="fill: #e377c2; stroke: #e377c2"/>
     <use xlink:href="#m12428ec841" x="540.413058" y="605.649935" style="fill: #e377c2; stroke: #e377c2"/>
    </g>
   </g>
   <g id="line2d_22">
    <path d="M 586.798182 609.907447 
" clip-path="url(#pca9d5044ba)" style="fill: none; stroke: #7f7f7f; stroke-width: 1.5; stroke-linecap: square"/>
    <defs>
     <path id="mf8ac314b72" d="M 0 1.5 
C 0.397805 1.5 0.77937 1.341951 1.06066 1.06066 
C 1.341951 0.77937 1.5 0.397805 1.5 0 
C 1.5 -0.397805 1.341951 -0.77937 1.06066 -1.06066 
C 0.77937 -1.341951 0.397805 -1.5 0 -1.5 
C -0.397805 -1.5 -0.77937 -1.341951 -1.06066 -1.06066 
C -1.341951 -0.77937 -1.5 -0.397805 -1.5 0 
C -1.5 0.397805 -1.341951 0.77937 -1.06066 1.06066 
C -0.77937 1.341951 -0.397805 1.5 0 1.5 
z
" style="stroke: #7f7f7f"/>
    </defs>
    <g clip-path="url(#pca9d5044ba)">
     <use xlink:href="#mf8ac314b72" x="586.798182" y="609.907447" style="fill: #7f7f7f; stroke: #7f7f7f"/>
    </g>
   </g>
   <g id="line2d_23">
    <path d="M 122.946942 661.849091 
L 169.332066 660.146086 
L 215.71719 660.146086 
L 262.102314 660.146086 
L 308.487438 660.146086 
L 354.872562 661.849091 
L 447.64281 658.443081 
L 494.027934 655.888574 
L 540.413058 658.443081 
" clip-path="url(#pca9d5044ba)" style="fill: none; stroke: #bcbd22; stroke-width: 1.5; stroke-linecap: square"/>
    <defs>
     <path id="mc8aca24da6" d="M 0 1.5 
C 0.397805 1.5 0.77937 1.341951 1.06066 1.06066 
C 1.341951 0.77937 1.5 0.397805 1.5 0 
C 1.5 -0.397805 1.341951 -0.77937 1.06066 -1.06066 
C 0.77937 -1.341951 0.397805 -1.5 0 -1.5 
C -0.397805 -1.5 -0.77937 -1.341951 -1.06066 -1.06066 
C -1.341951 -0.77937 -1.5 -0.397805 -1.5 0 
C -1.5 0.397805 -1.341951 0.77937 -1.06066 1.06066 
C -0.77937 1.341951 -0.397805 1.5 0 1.5 
z
" style="stroke: #bcbd22"/>
    </defs>
    <g clip-path="url(#pca9d5044ba)">
     <use xlink:href="#mc8aca24da6" x="122.946942" y="661.849091" style="fill: #bcbd22; stroke: #bcbd22"/>
     <use xlink:href="#mc8aca24da6" x="169.332066" y="660.146086" style="fill: #bcbd22; stroke: #bcbd22"/>
     <use xlink:href="#mc8aca24da6" x="215.71719" y="660.146086" style="fill: #bcbd22; stroke: #bcbd22"/>
     <use xlink:href="#mc8aca24da6" x="262.102314" y="660.146086" style="fill: #bcbd22; stroke: #bcbd22"/>
     <use xlink:href="#mc8aca24da6" x="308.487438" y="660.146086" style="fill: #bcbd22; stroke: #bcbd22"/>
     <use xlink:href="#mc8aca24da6" x="354.872562" y="661.849091" style="fill: #bcbd22; stroke: #bcbd22"/>
     <use xlink:href="#mc8aca24da6" x="447.64281" y="658.443081" style="fill: #bcbd22; stroke: #bcbd22"/>
     <use xlink:href="#mc8aca24da6" x="494.027934" y="655.888574" style="fill: #bcbd22; stroke: #bcbd22"/>
     <use xlink:href="#mc8aca24da6" x="540.413058" y="658.443081" style="fill: #bcbd22; stroke: #bcbd22"/>
    </g>
   </g>
   <g id="line2d_24">
    <path d="M 122.946942 661.849091 
" clip-path="url(#pca9d5044ba)" style="fill: none; stroke: #17becf; stroke-width: 1.5; stroke-linecap: square"/>
    <defs>
     <path id="m50844b5f84" d="M 0 1.5 
C 0.397805 1.5 0.77937 1.341951 1.06066 1.06066 
C 1.341951 0.77937 1.5 0.397805 1.5 0 
C 1.5 -0.397805 1.341951 -0.77937 1.06066 -1.06066 
C 0.77937 -1.341951 0.397805 -1.5 0 -1.5 
C -0.397805 -1.5 -0.77937 -1.341951 -1.06066 -1.06066 
C -1.341951 -0.77937 -1.5 -0.397805 -1.5 0 
C -1.5 0.397805 -1.341951 0.77937 -1.06066 1.06066 
C -0.77937 1.341951 -0.397805 1.5 0 1.5 
z
" style="stroke: #17becf"/>
    </defs>
    <g clip-path="url(#pca9d5044ba)">
     <use xlink:href="#m50844b5f84" x="122.946942" y="661.849091" style="fill: #17becf; stroke: #17becf"/>
    </g>
   </g>
   <g id="patch_3">
    <path d="M 51.05 692.12 
L 51.05 26.16 
" style="fill: none; stroke: #000000; stroke-width: 0.8; stroke-linejoin: miter; stroke-linecap: square"/>
   </g>
   <g id="patch_4">
    <path d="M 612.31 692.12 
L 612.31 26.16 
" style="fill: none; stroke: #000000; stroke-width: 0.8; stroke-linejoin: miter; stroke-linecap: square"/>
   </g>
   <g id="patch_5">
    <path d="M 51.05 692.12 
L 612.31 692.12 
" style="fill: none; stroke: #000000; stroke-width: 0.8; stroke-linejoin: miter; stroke-linecap: square"/>
   </g>
   <g id="patch_6">
    <path d="M 51.05 26.16 
L 612.31 26.16 
" style="fill: none; stroke: #000000; stroke-width: 0.8; stroke-linejoin: miter; stroke-linecap: square"/>
   </g>
   <g id="text_16">
    <!-- Washington Public, Snoqualmie Valley, Elementary -->
    <g transform="translate(179.352188 20.16) scale(0.12 -0.12)">
     <defs>
      <path id="DejaVuSans-57" d="M 213 4666 
L 850 4666 
L 1831 722 
L 2809 4666 
L 3519 4666 
L 4500 722 
L 5478 4666 
L 6119 4666 
L 4947 0 
L 4153 0 
L 3169 4050 
L 2175 0 
L 1381 0 
L 213 4666 
z
" transform="scale(0.015625)"/>
      <path id="DejaVuSans-61" d="M 2194 1759 
Q 1497 1759 1228 1600 
Q 959 1441 959 1056 
Q 959 750 1161 570 
Q 1363 391 1709 391 
Q 2188 391 2477 730 
Q 2766 1069 2766 1631 
L 2766 1759 
L 2194 1759 
z
M 3341 1997 
L 3341 0 
L 2766 0 
L 2766 531 
Q 2569 213 2275 61 
Q 1981 -91 1556 -91 
Q 1019 -91 701 211 
Q 384 513 384 1019 
Q 384 1609 779 1909 
Q 1175 2209 1959 2209 
L 2766 2209 
L 2766 2266 
Q 2766 2663 2505 2880 
Q 2244 3097 1772 3097 
Q 1472 3097 1187 3025 
Q 903 2953 641 2809 
L 641 3341 
Q 956 3463 1253 3523 
Q 1550 3584 1831 3584 
Q 2591 3584 2966 3190 
Q 3341 2797 3341 1997 
z
" transform="scale(0.015625)"/>
      <path id="DejaVuSans-73" d="M 2834 3397 
L 2834 2853 
Q 2591 2978 2328 3040 
Q 2066 3103 1784 3103 
Q 1356 3103 1142 2972 
Q 928 2841 928 2578 
Q 928 2378 1081 2264 
Q 1234 2150 1697 2047 
L 1894 2003 
Q 2506 1872 2764 1633 
Q 3022 1394 3022 966 
Q 3022 478 2636 193 
Q 2250 -91 1575 -91 
Q 1294 -91 989 -36 
Q 684 19 347 128 
L 347 722 
Q 666 556 975 473 
Q 1284 391 1588 391 
Q 1994 391 2212 530 
Q 2431 669 2431 922 
Q 2431 1156 2273 1281 
Q 2116 1406 1581 1522 
L 1381 1569 
Q 847 1681 609 1914 
Q 372 2147 372 2553 
Q 372 3047 722 3315 
Q 1072 3584 1716 3584 
Q 2034 3584 2315 3537 
Q 2597 3491 2834 3397 
z
" transform="scale(0.015625)"/>
      <path id="DejaVuSans-68" d="M 3513 2113 
L 3513 0 
L 2938 0 
L 2938 2094 
Q 2938 2591 2744 2837 
Q 2550 3084 2163 3084 
Q 1697 3084 1428 2787 
Q 1159 2491 1159 1978 
L 1159 0 
L 581 0 
L 581 4863 
L 1159 4863 
L 1159 2956 
Q 1366 3272 1645 3428 
Q 1925 3584 2291 3584 
Q 2894 3584 3203 3211 
Q 3513 2838 3513 2113 
z
" transform="scale(0.015625)"/>
      <path id="DejaVuSans-69" d="M 603 3500 
L 1178 3500 
L 1178 0 
L 603 0 
L 603 3500 
z
M 603 4863 
L 1178 4863 
L 1178 4134 
L 603 4134 
L 603 4863 
z
" transform="scale(0.015625)"/>
      <path id="DejaVuSans-67" d="M 2906 1791 
Q 2906 2416 2648 2759 
Q 2391 3103 1925 3103 
Q 1463 3103 1205 2759 
Q 947 2416 947 1791 
Q 947 1169 1205 825 
Q 1463 481 1925 481 
Q 2391 481 2648 825 
Q 2906 1169 2906 1791 
z
M 3481 434 
Q 3481 -459 3084 -895 
Q 2688 -1331 1869 -1331 
Q 1566 -1331 1297 -1286 
Q 1028 -1241 775 -1147 
L 775 -588 
Q 1028 -725 1275 -790 
Q 1522 -856 1778 -856 
Q 2344 -856 2625 -561 
Q 2906 -266 2906 331 
L 2906 616 
Q 2728 306 2450 153 
Q 2172 0 1784 0 
Q 1141 0 747 490 
Q 353 981 353 1791 
Q 353 2603 747 3093 
Q 1141 3584 1784 3584 
Q 2172 3584 2450 3431 
Q 2728 3278 2906 2969 
L 2906 3500 
L 3481 3500 
L 3481 434 
z
" transform="scale(0.015625)"/>
      <path id="DejaVuSans-20" transform="scale(0.015625)"/>
      <path id="DejaVuSans-50" d="M 1259 4147 
L 1259 2394 
L 2053 2394 
Q 2494 2394 2734 2622 
Q 2975 2850 2975 3272 
Q 2975 3691 2734 3919 
Q 2494 4147 2053 4147 
L 1259 4147 
z
M 628 4666 
L 2053 4666 
Q 2838 4666 3239 4311 
Q 3641 3956 3641 3272 
Q 3641 2581 3239 2228 
Q 2838 1875 2053 1875 
L 1259 1875 
L 1259 0 
L 628 0 
L 628 4666 
z
" transform="scale(0.015625)"/>
      <path id="DejaVuSans-75" d="M 544 1381 
L 544 3500 
L 1119 3500 
L 1119 1403 
Q 1119 906 1312 657 
Q 1506 409 1894 409 
Q 2359 409 2629 706 
Q 2900 1003 2900 1516 
L 2900 3500 
L 3475 3500 
L 3475 0 
L 2900 0 
L 2900 538 
Q 2691 219 2414 64 
Q 2138 -91 1772 -91 
Q 1169 -91 856 284 
Q 544 659 544 1381 
z
M 1991 3584 
L 1991 3584 
z
" transform="scale(0.015625)"/>
      <path id="DejaVuSans-62" d="M 3116 1747 
Q 3116 2381 2855 2742 
Q 2594 3103 2138 3103 
Q 1681 3103 1420 2742 
Q 1159 2381 1159 1747 
Q 1159 1113 1420 752 
Q 1681 391 2138 391 
Q 2594 391 2855 752 
Q 3116 1113 3116 1747 
z
M 1159 2969 
Q 1341 3281 1617 3432 
Q 1894 3584 2278 3584 
Q 2916 3584 3314 3078 
Q 3713 2572 3713 1747 
Q 3713 922 3314 415 
Q 2916 -91 2278 -91 
Q 1894 -91 1617 61 
Q 1341 213 1159 525 
L 1159 0 
L 581 0 
L 581 4863 
L 1159 4863 
L 1159 2969 
z
" transform="scale(0.015625)"/>
      <path id="DejaVuSans-63" d="M 3122 3366 
L 3122 2828 
Q 2878 2963 2633 3030 
Q 2388 3097 2138 3097 
Q 1578 3097 1268 2742 
Q 959 2388 959 1747 
Q 959 1106 1268 751 
Q 1578 397 2138 397 
Q 2388 397 2633 464 
Q 2878 531 3122 666 
L 3122 134 
Q 2881 22 2623 -34 
Q 2366 -91 2075 -91 
Q 1284 -91 818 406 
Q 353 903 353 1747 
Q 353 2603 823 3093 
Q 1294 3584 2113 3584 
Q 2378 3584 2631 3529 
Q 2884 3475 3122 3366 
z
" transform="scale(0.015625)"/>
      <path id="DejaVuSans-2c" d="M 750 794 
L 1409 794 
L 1409 256 
L 897 -744 
L 494 -744 
L 750 256 
L 750 794 
z
" transform="scale(0.015625)"/>
      <path id="DejaVuSans-53" d="M 3425 4513 
L 3425 3897 
Q 3066 4069 2747 4153 
Q 2428 4238 2131 4238 
Q 1616 4238 1336 4038 
Q 1056 3838 1056 3469 
Q 1056 3159 1242 3001 
Q 1428 2844 1947 2747 
L 2328 2669 
Q 3034 2534 3370 2195 
Q 3706 1856 3706 1288 
Q 3706 609 3251 259 
Q 2797 -91 1919 -91 
Q 1588 -91 1214 -16 
Q 841 59 441 206 
L 441 856 
Q 825 641 1194 531 
Q 1563 422 1919 422 
Q 2459 422 2753 634 
Q 3047 847 3047 1241 
Q 3047 1584 2836 1778 
Q 2625 1972 2144 2069 
L 1759 2144 
Q 1053 2284 737 2584 
Q 422 2884 422 3419 
Q 422 4038 858 4394 
Q 1294 4750 2059 4750 
Q 2388 4750 2728 4690 
Q 3069 4631 3425 4513 
z
" transform="scale(0.015625)"/>
      <path id="DejaVuSans-71" d="M 947 1747 
Q 947 1113 1208 752 
Q 1469 391 1925 391 
Q 2381 391 2643 752 
Q 2906 1113 2906 1747 
Q 2906 2381 2643 2742 
Q 2381 3103 1925 3103 
Q 1469 3103 1208 2742 
Q 947 2381 947 1747 
z
M 2906 525 
Q 2725 213 2448 61 
Q 2172 -91 1784 -91 
Q 1150 -91 751 415 
Q 353 922 353 1747 
Q 353 2572 751 3078 
Q 1150 3584 1784 3584 
Q 2172 3584 2448 3432 
Q 2725 3281 2906 2969 
L 2906 3500 
L 3481 3500 
L 3481 -1331 
L 2906 -1331 
L 2906 525 
z
" transform="scale(0.015625)"/>
      <path id="DejaVuSans-56" d="M 1831 0 
L 50 4666 
L 709 4666 
L 2188 738 
L 3669 4666 
L 4325 4666 
L 2547 0 
L 1831 0 
z
" transform="scale(0.015625)"/>
      <path id="DejaVuSans-79" d="M 2059 -325 
Q 1816 -950 1584 -1140 
Q 1353 -1331 966 -1331 
L 506 -1331 
L 506 -850 
L 844 -850 
Q 1081 -850 1212 -737 
Q 1344 -625 1503 -206 
L 1606 56 
L 191 3500 
L 800 3500 
L 1894 763 
L 2988 3500 
L 3597 3500 
L 2059 -325 
z
" transform="scale(0.015625)"/>
     </defs>
     <use xlink:href="#DejaVuSans-57"/>
     <use xlink:href="#DejaVuSans-61" transform="translate(92.501953 0)"/>
     <use xlink:href="#DejaVuSans-73" transform="translate(153.78125 0)"/>
     <use xlink:href="#DejaVuSans-68" transform="translate(205.880859 0)"/>
     <use xlink:href="#DejaVuSans-69" transform="translate(269.259766 0)"/>
     <use xlink:href="#DejaVuSans-6e" transform="translate(297.042969 0)"/>
     <use xlink:href="#DejaVuSans-67" transform="translate(360.421875 0)"/>
     <use xlink:href="#DejaVuSans-74" transform="translate(423.898438 0)"/>
     <use xlink:href="#DejaVuSans-6f" transform="translate(463.107422 0)"/>
     <use xlink:href="#DejaVuSans-6e" transform="translate(524.289062 0)"/>
     <use xlink:href="#DejaVuSans-20" transform="translate(587.667969 0)"/>
     <use xlink:href="#DejaVuSans-50" transform="translate(619.455078 0)"/>
     <use xlink:href="#DejaVuSans-75" transform="translate(678.007812 0)"/>
     <use xlink:href="#DejaVuSans-62" transform="translate(741.386719 0)"/>
     <use xlink:href="#DejaVuSans-6c" transform="translate(804.863281 0)"/>
     <use xlink:href="#DejaVuSans-69" transform="translate(832.646484 0)"/>
     <use xlink:href="#DejaVuSans-63" transform="translate(860.429688 0)"/>
     <use xlink:href="#DejaVuSans-2c" transform="translate(915.410156 0)"/>
     <use xlink:href="#DejaVuSans-20" transform="translate(947.197266 0)"/>
     <use xlink:href="#DejaVuSans-53" transform="translate(978.984375 0)"/>
     <use xlink:href="#DejaVuSans-6e" transform="translate(1042.460938 0)"/>
     <use xlink:href="#DejaVuSans-6f" transform="translate(1105.839844 0)"/>
     <use xlink:href="#DejaVuSans-71" transform="translate(1167.021484 0)"/>
     <use xlink:href="#DejaVuSans-75" transform="translate(1230.498047 0)"/>
     <use xlink:href="#DejaVuSans-61" transform="translate(1293.876953 0)"/>
     <use xlink:href="#DejaVuSans-6c" transform="translate(1355.15625 0)"/>
     <use xlink:href="#DejaVuSans-6d" transform="translate(1382.939453 0)"/>
     <use xlink:href="#DejaVuSans-69" transform="translate(1480.351562 0)"/>
     <use xlink:href="#DejaVuSans-65" transform="translate(1508.134766 0)"/>
     <use xlink:href="#DejaVuSans-20" transform="translate(1569.658203 0)"/>
     <use xlink:href="#DejaVuSans-56" transform="translate(1601.445312 0)"/>
     <use xlink:href="#DejaVuSans-61" transform="translate(1662.103516 0)"/>
     <use xlink:href="#DejaVuSans-6c" transform="translate(1723.382812 0)"/>
     <use xlink:href="#DejaVuSans-6c" transform="translate(1751.166016 0)"/>
     <use xlink:href="#DejaVuSans-65" transform="translate(1778.949219 0)"/>
     <use xlink:href="#DejaVuSans-79" transform="translate(1840.472656 0)"/>
     <use xlink:href="#DejaVuSans-2c" transform="translate(1899.652344 0)"/>
     <use xlink:href="#DejaVuSans-20" transform="translate(1931.439453 0)"/>
     <use xlink:href="#DejaVuSans-45" transform="translate(1963.226562 0)"/>
     <use xlink:href="#DejaVuSans-6c" transform="translate(2026.410156 0)"/>
     <use xlink:href="#DejaVuSans-65" transform="translate(2054.193359 0)"/>
     <use xlink:href="#DejaVuSans-6d" transform="translate(2115.716797 0)"/>
     <use xlink:href="#DejaVuSans-65" transform="translate(2213.128906 0)"/>
     <use xlink:href="#DejaVuSans-6e" transform="translate(2274.652344 0)"/>
     <use xlink:href="#DejaVuSans-74" transform="translate(2338.03125 0)"/>
     <use xlink:href="#DejaVuSans-61" transform="translate(2377.240234 0)"/>
     <use xlink:href="#DejaVuSans-72" transform="translate(2438.519531 0)"/>
     <use xlink:href="#DejaVuSans-79" transform="translate(2479.632812 0)"/>
    </g>
   </g>
   <g id="legend_1">
    <g id="patch_7">
     <path d="M 619.31 434.030625 
L 851.119375 434.030625 
Q 853.119375 434.030625 853.119375 432.030625 
L 853.119375 286.249375 
Q 853.119375 284.249375 851.119375 284.249375 
L 619.31 284.249375 
Q 617.31 284.249375 617.31 286.249375 
L 617.31 432.030625 
Q 617.31 434.030625 619.31 434.030625 
z
" style="fill: #ffffff; opacity: 0.8; stroke: #cccccc; stroke-linejoin: miter"/>
    </g>
    <g id="line2d_25">
     <path d="M 621.31 292.347813 
L 631.31 292.347813 
L 641.31 292.347813 
" style="fill: none; stroke: #1f77b4; stroke-width: 1.5; stroke-linecap: square"/>
     <g>
      <use xlink:href="#mab713cc6bd" x="631.31" y="292.347813" style="fill: #1f77b4; stroke: #1f77b4"/>
     </g>
    </g>
    <g id="text_17">
     <!-- Edwin R Opstad Elementary -->
     <g transform="translate(649.31 295.847813) scale(0.1 -0.1)">
      <defs>
       <path id="DejaVuSans-64" d="M 2906 2969 
L 2906 4863 
L 3481 4863 
L 3481 0 
L 2906 0 
L 2906 525 
Q 2725 213 2448 61 
Q 2172 -91 1784 -91 
Q 1150 -91 751 415 
Q 353 922 353 1747 
Q 353 2572 751 3078 
Q 1150 3584 1784 3584 
Q 2172 3584 2448 3432 
Q 2725 3281 2906 2969 
z
M 947 1747 
Q 947 1113 1208 752 
Q 1469 391 1925 391 
Q 2381 391 2643 752 
Q 2906 1113 2906 1747 
Q 2906 2381 2643 2742 
Q 2381 3103 1925 3103 
Q 1469 3103 1208 2742 
Q 947 2381 947 1747 
z
" transform="scale(0.015625)"/>
       <path id="DejaVuSans-77" d="M 269 3500 
L 844 3500 
L 1563 769 
L 2278 3500 
L 2956 3500 
L 3675 769 
L 4391 3500 
L 4966 3500 
L 4050 0 
L 3372 0 
L 2619 2869 
L 1863 0 
L 1184 0 
L 269 3500 
z
" transform="scale(0.015625)"/>
       <path id="DejaVuSans-52" d="M 2841 2188 
Q 3044 2119 3236 1894 
Q 3428 1669 3622 1275 
L 4263 0 
L 3584 0 
L 2988 1197 
Q 2756 1666 2539 1819 
Q 2322 1972 1947 1972 
L 1259 1972 
L 1259 0 
L 628 0 
L 628 4666 
L 2053 4666 
Q 2853 4666 3247 4331 
Q 3641 3997 3641 3322 
Q 3641 2881 3436 2590 
Q 3231 2300 2841 2188 
z
M 1259 4147 
L 1259 2491 
L 2053 2491 
Q 2509 2491 2742 2702 
Q 2975 2913 2975 3322 
Q 2975 3731 2742 3939 
Q 2509 4147 2053 4147 
L 1259 4147 
z
" transform="scale(0.015625)"/>
       <path id="DejaVuSans-4f" d="M 2522 4238 
Q 1834 4238 1429 3725 
Q 1025 3213 1025 2328 
Q 1025 1447 1429 934 
Q 1834 422 2522 422 
Q 3209 422 3611 934 
Q 4013 1447 4013 2328 
Q 4013 3213 3611 3725 
Q 3209 4238 2522 4238 
z
M 2522 4750 
Q 3503 4750 4090 4092 
Q 4678 3434 4678 2328 
Q 4678 1225 4090 567 
Q 3503 -91 2522 -91 
Q 1538 -91 948 565 
Q 359 1222 359 2328 
Q 359 3434 948 4092 
Q 1538 4750 2522 4750 
z
" transform="scale(0.015625)"/>
       <path id="DejaVuSans-70" d="M 1159 525 
L 1159 -1331 
L 581 -1331 
L 581 3500 
L 1159 3500 
L 1159 2969 
Q 1341 3281 1617 3432 
Q 1894 3584 2278 3584 
Q 2916 3584 3314 3078 
Q 3713 2572 3713 1747 
Q 3713 922 3314 415 
Q 2916 -91 2278 -91 
Q 1894 -91 1617 61 
Q 1341 213 1159 525 
z
M 3116 1747 
Q 3116 2381 2855 2742 
Q 2594 3103 2138 3103 
Q 1681 3103 1420 2742 
Q 1159 2381 1159 1747 
Q 1159 1113 1420 752 
Q 1681 391 2138 391 
Q 2594 391 2855 752 
Q 3116 1113 3116 1747 
z
" transform="scale(0.015625)"/>
      </defs>
      <use xlink:href="#DejaVuSans-45"/>
      <use xlink:href="#DejaVuSans-64" transform="translate(63.183594 0)"/>
      <use xlink:href="#DejaVuSans-77" transform="translate(126.660156 0)"/>
      <use xlink:href="#DejaVuSans-69" transform="translate(208.447266 0)"/>
      <use xlink:href="#DejaVuSans-6e" transform="translate(236.230469 0)"/>
      <use xlink:href="#DejaVuSans-20" transform="translate(299.609375 0)"/>
      <use xlink:href="#DejaVuSans-52" transform="translate(331.396484 0)"/>
      <use xlink:href="#DejaVuSans-20" transform="translate(400.878906 0)"/>
      <use xlink:href="#DejaVuSans-4f" transform="translate(432.666016 0)"/>
      <use xlink:href="#DejaVuSans-70" transform="translate(511.376953 0)"/>
      <use xlink:href="#DejaVuSans-73" transform="translate(574.853516 0)"/>
      <use xlink:href="#DejaVuSans-74" transform="translate(626.953125 0)"/>
      <use xlink:href="#DejaVuSans-61" transform="translate(666.162109 0)"/>
      <use xlink:href="#DejaVuSans-64" transform="translate(727.441406 0)"/>
      <use xlink:href="#DejaVuSans-20" transform="translate(790.917969 0)"/>
      <use xlink:href="#DejaVuSans-45" transform="translate(822.705078 0)"/>
      <use xlink:href="#DejaVuSans-6c" transform="translate(885.888672 0)"/>
      <use xlink:href="#DejaVuSans-65" transform="translate(913.671875 0)"/>
      <use xlink:href="#DejaVuSans-6d" transform="translate(975.195312 0)"/>
      <use xlink:href="#DejaVuSans-65" transform="translate(1072.607422 0)"/>
      <use xlink:href="#DejaVuSans-6e" transform="translate(1134.130859 0)"/>
      <use xlink:href="#DejaVuSans-74" transform="translate(1197.509766 0)"/>
      <use xlink:href="#DejaVuSans-61" transform="translate(1236.71875 0)"/>
      <use xlink:href="#DejaVuSans-72" transform="translate(1297.998047 0)"/>
      <use xlink:href="#DejaVuSans-79" transform="translate(1339.111328 0)"/>
     </g>
    </g>
    <g id="line2d_26">
     <path d="M 621.31 307.025938 
L 631.31 307.025938 
L 641.31 307.025938 
" style="fill: none; stroke: #ff7f0e; stroke-width: 1.5; stroke-linecap: square"/>
     <g>
      <use xlink:href="#mc461bcc433" x="631.31" y="307.025938" style="fill: #ff7f0e; stroke: #ff7f0e"/>
     </g>
    </g>
    <g id="text_18">
     <!-- Timber Ridge Elementary School -->
     <g transform="translate(649.31 310.525938) scale(0.1 -0.1)">
      <defs>
       <path id="DejaVuSans-54" d="M -19 4666 
L 3928 4666 
L 3928 4134 
L 2272 4134 
L 2272 0 
L 1638 0 
L 1638 4134 
L -19 4134 
L -19 4666 
z
" transform="scale(0.015625)"/>
      </defs>
      <use xlink:href="#DejaVuSans-54"/>
      <use xlink:href="#DejaVuSans-69" transform="translate(57.958984 0)"/>
      <use xlink:href="#DejaVuSans-6d" transform="translate(85.742188 0)"/>
      <use xlink:href="#DejaVuSans-62" transform="translate(183.154297 0)"/>
      <use xlink:href="#DejaVuSans-65" transform="translate(246.630859 0)"/>
      <use xlink:href="#DejaVuSans-72" transform="translate(308.154297 0)"/>
      <use xlink:href="#DejaVuSans-20" transform="translate(349.267578 0)"/>
      <use xlink:href="#DejaVuSans-52" transform="translate(381.054688 0)"/>
      <use xlink:href="#DejaVuSans-69" transform="translate(450.537109 0)"/>
      <use xlink:href="#DejaVuSans-64" transform="translate(478.320312 0)"/>
      <use xlink:href="#DejaVuSans-67" transform="translate(541.796875 0)"/>
      <use xlink:href="#DejaVuSans-65" transform="translate(605.273438 0)"/>
      <use xlink:href="#DejaVuSans-20" transform="translate(666.796875 0)"/>
      <use xlink:href="#DejaVuSans-45" transform="translate(698.583984 0)"/>
      <use xlink:href="#DejaVuSans-6c" transform="translate(761.767578 0)"/>
      <use xlink:href="#DejaVuSans-65" transform="translate(789.550781 0)"/>
      <use xlink:href="#DejaVuSans-6d" transform="translate(851.074219 0)"/>
      <use xlink:href="#DejaVuSans-65" transform="translate(948.486328 0)"/>
      <use xlink:href="#DejaVuSans-6e" transform="translate(1010.009766 0)"/>
      <use xlink:href="#DejaVuSans-74" transform="translate(1073.388672 0)"/>
      <use xlink:href="#DejaVuSans-61" transform="translate(1112.597656 0)"/>
      <use xlink:href="#DejaVuSans-72" transform="translate(1173.876953 0)"/>
      <use xlink:href="#DejaVuSans-79" transform="translate(1214.990234 0)"/>
      <use xlink:href="#DejaVuSans-20" transform="translate(1274.169922 0)"/>
      <use xlink:href="#DejaVuSans-53" transform="translate(1305.957031 0)"/>
      <use xlink:href="#DejaVuSans-63" transform="translate(1369.433594 0)"/>
      <use xlink:href="#DejaVuSans-68" transform="translate(1424.414062 0)"/>
      <use xlink:href="#DejaVuSans-6f" transform="translate(1487.792969 0)"/>
      <use xlink:href="#DejaVuSans-6f" transform="translate(1548.974609 0)"/>
      <use xlink:href="#DejaVuSans-6c" transform="translate(1610.15625 0)"/>
     </g>
    </g>
    <g id="line2d_27">
     <path d="M 621.31 321.704063 
L 631.31 321.704063 
L 641.31 321.704063 
" style="fill: none; stroke: #2ca02c; stroke-width: 1.5; stroke-linecap: square"/>
     <g>
      <use xlink:href="#mb0e2db6a61" x="631.31" y="321.704063" style="fill: #2ca02c; stroke: #2ca02c"/>
     </g>
    </g>
    <g id="text_19">
     <!-- North Bend Elementary School -->
     <g transform="translate(649.31 325.204063) scale(0.1 -0.1)">
      <defs>
       <path id="DejaVuSans-4e" d="M 628 4666 
L 1478 4666 
L 3547 763 
L 3547 4666 
L 4159 4666 
L 4159 0 
L 3309 0 
L 1241 3903 
L 1241 0 
L 628 0 
L 628 4666 
z
" transform="scale(0.015625)"/>
       <path id="DejaVuSans-42" d="M 1259 2228 
L 1259 519 
L 2272 519 
Q 2781 519 3026 730 
Q 3272 941 3272 1375 
Q 3272 1813 3026 2020 
Q 2781 2228 2272 2228 
L 1259 2228 
z
M 1259 4147 
L 1259 2741 
L 2194 2741 
Q 2656 2741 2882 2914 
Q 3109 3088 3109 3444 
Q 3109 3797 2882 3972 
Q 2656 4147 2194 4147 
L 1259 4147 
z
M 628 4666 
L 2241 4666 
Q 2963 4666 3353 4366 
Q 3744 4066 3744 3513 
Q 3744 3084 3544 2831 
Q 3344 2578 2956 2516 
Q 3422 2416 3680 2098 
Q 3938 1781 3938 1306 
Q 3938 681 3513 340 
Q 3088 0 2303 0 
L 628 0 
L 628 4666 
z
" transform="scale(0.015625)"/>
      </defs>
      <use xlink:href="#DejaVuSans-4e"/>
      <use xlink:href="#DejaVuSans-6f" transform="translate(74.804688 0)"/>
      <use xlink:href="#DejaVuSans-72" transform="translate(135.986328 0)"/>
      <use xlink:href="#DejaVuSans-74" transform="translate(177.099609 0)"/>
      <use xlink:href="#DejaVuSans-68" transform="translate(216.308594 0)"/>
      <use xlink:href="#DejaVuSans-20" transform="translate(279.6875 0)"/>
      <use xlink:href="#DejaVuSans-42" transform="translate(311.474609 0)"/>
      <use xlink:href="#DejaVuSans-65" transform="translate(380.078125 0)"/>
      <use xlink:href="#DejaVuSans-6e" transform="translate(441.601562 0)"/>
      <use xlink:href="#DejaVuSans-64" transform="translate(504.980469 0)"/>
      <use xlink:href="#DejaVuSans-20" transform="translate(568.457031 0)"/>
      <use xlink:href="#DejaVuSans-45" transform="translate(600.244141 0)"/>
      <use xlink:href="#DejaVuSans-6c" transform="translate(663.427734 0)"/>
      <use xlink:href="#DejaVuSans-65" transform="translate(691.210938 0)"/>
      <use xlink:href="#DejaVuSans-6d" transform="translate(752.734375 0)"/>
      <use xlink:href="#DejaVuSans-65" transform="translate(850.146484 0)"/>
      <use xlink:href="#DejaVuSans-6e" transform="translate(911.669922 0)"/>
      <use xlink:href="#DejaVuSans-74" transform="translate(975.048828 0)"/>
      <use xlink:href="#DejaVuSans-61" transform="translate(1014.257812 0)"/>
      <use xlink:href="#DejaVuSans-72" transform="translate(1075.537109 0)"/>
      <use xlink:href="#DejaVuSans-79" transform="translate(1116.650391 0)"/>
      <use xlink:href="#DejaVuSans-20" transform="translate(1175.830078 0)"/>
      <use xlink:href="#DejaVuSans-53" transform="translate(1207.617188 0)"/>
      <use xlink:href="#DejaVuSans-63" transform="translate(1271.09375 0)"/>
      <use xlink:href="#DejaVuSans-68" transform="translate(1326.074219 0)"/>
      <use xlink:href="#DejaVuSans-6f" transform="translate(1389.453125 0)"/>
      <use xlink:href="#DejaVuSans-6f" transform="translate(1450.634766 0)"/>
      <use xlink:href="#DejaVuSans-6c" transform="translate(1511.816406 0)"/>
     </g>
    </g>
    <g id="line2d_28">
     <path d="M 621.31 336.382188 
L 631.31 336.382188 
L 641.31 336.382188 
" style="fill: none; stroke: #d62728; stroke-width: 1.5; stroke-linecap: square"/>
     <g>
      <use xlink:href="#mfa6fe4c792" x="631.31" y="336.382188" style="fill: #d62728; stroke: #d62728"/>
     </g>
    </g>
    <g id="text_20">
     <!-- Cascade View Elementary School -->
     <g transform="translate(649.31 339.882188) scale(0.1 -0.1)">
      <defs>
       <path id="DejaVuSans-43" d="M 4122 4306 
L 4122 3641 
Q 3803 3938 3442 4084 
Q 3081 4231 2675 4231 
Q 1875 4231 1450 3742 
Q 1025 3253 1025 2328 
Q 1025 1406 1450 917 
Q 1875 428 2675 428 
Q 3081 428 3442 575 
Q 3803 722 4122 1019 
L 4122 359 
Q 3791 134 3420 21 
Q 3050 -91 2638 -91 
Q 1578 -91 968 557 
Q 359 1206 359 2328 
Q 359 3453 968 4101 
Q 1578 4750 2638 4750 
Q 3056 4750 3426 4639 
Q 3797 4528 4122 4306 
z
" transform="scale(0.015625)"/>
      </defs>
      <use xlink:href="#DejaVuSans-43"/>
      <use xlink:href="#DejaVuSans-61" transform="translate(69.824219 0)"/>
      <use xlink:href="#DejaVuSans-73" transform="translate(131.103516 0)"/>
      <use xlink:href="#DejaVuSans-63" transform="translate(183.203125 0)"/>
      <use xlink:href="#DejaVuSans-61" transform="translate(238.183594 0)"/>
      <use xlink:href="#DejaVuSans-64" transform="translate(299.462891 0)"/>
      <use xlink:href="#DejaVuSans-65" transform="translate(362.939453 0)"/>
      <use xlink:href="#DejaVuSans-20" transform="translate(424.462891 0)"/>
      <use xlink:href="#DejaVuSans-56" transform="translate(456.25 0)"/>
      <use xlink:href="#DejaVuSans-69" transform="translate(522.408203 0)"/>
      <use xlink:href="#DejaVuSans-65" transform="translate(550.191406 0)"/>
      <use xlink:href="#DejaVuSans-77" transform="translate(611.714844 0)"/>
      <use xlink:href="#DejaVuSans-20" transform="translate(693.501953 0)"/>
      <use xlink:href="#DejaVuSans-45" transform="translate(725.289062 0)"/>
      <use xlink:href="#DejaVuSans-6c" transform="translate(788.472656 0)"/>
      <use xlink:href="#DejaVuSans-65" transform="translate(816.255859 0)"/>
      <use xlink:href="#DejaVuSans-6d" transform="translate(877.779297 0)"/>
      <use xlink:href="#DejaVuSans-65" transform="translate(975.191406 0)"/>
      <use xlink:href="#DejaVuSans-6e" transform="translate(1036.714844 0)"/>
      <use xlink:href="#DejaVuSans-74" transform="translate(1100.09375 0)"/>
      <use xlink:href="#DejaVuSans-61" transform="translate(1139.302734 0)"/>
      <use xlink:href="#DejaVuSans-72" transform="translate(1200.582031 0)"/>
      <use xlink:href="#DejaVuSans-79" transform="translate(1241.695312 0)"/>
      <use xlink:href="#DejaVuSans-20" transform="translate(1300.875 0)"/>
      <use xlink:href="#DejaVuSans-53" transform="translate(1332.662109 0)"/>
      <use xlink:href="#DejaVuSans-63" transform="translate(1396.138672 0)"/>
      <use xlink:href="#DejaVuSans-68" transform="translate(1451.119141 0)"/>
      <use xlink:href="#DejaVuSans-6f" transform="translate(1514.498047 0)"/>
      <use xlink:href="#DejaVuSans-6f" transform="translate(1575.679688 0)"/>
      <use xlink:href="#DejaVuSans-6c" transform="translate(1636.861328 0)"/>
     </g>
    </g>
    <g id="line2d_29">
     <path d="M 621.31 351.060313 
L 631.31 351.060313 
L 641.31 351.060313 
" style="fill: none; stroke: #9467bd; stroke-width: 1.5; stroke-linecap: square"/>
     <g>
      <use xlink:href="#m938bed0168" x="631.31" y="351.060313" style="fill: #9467bd; stroke: #9467bd"/>
     </g>
    </g>
    <g id="text_21">
     <!-- Fall City Elementary -->
     <g transform="translate(649.31 354.560313) scale(0.1 -0.1)">
      <defs>
       <path id="DejaVuSans-46" d="M 628 4666 
L 3309 4666 
L 3309 4134 
L 1259 4134 
L 1259 2759 
L 3109 2759 
L 3109 2228 
L 1259 2228 
L 1259 0 
L 628 0 
L 628 4666 
z
" transform="scale(0.015625)"/>
      </defs>
      <use xlink:href="#DejaVuSans-46"/>
      <use xlink:href="#DejaVuSans-61" transform="translate(48.394531 0)"/>
      <use xlink:href="#DejaVuSans-6c" transform="translate(109.673828 0)"/>
      <use xlink:href="#DejaVuSans-6c" transform="translate(137.457031 0)"/>
      <use xlink:href="#DejaVuSans-20" transform="translate(165.240234 0)"/>
      <use xlink:href="#DejaVuSans-43" transform="translate(197.027344 0)"/>
      <use xlink:href="#DejaVuSans-69" transform="translate(266.851562 0)"/>
      <use xlink:href="#DejaVuSans-74" transform="translate(294.634766 0)"/>
      <use xlink:href="#DejaVuSans-79" transform="translate(333.84375 0)"/>
      <use xlink:href="#DejaVuSans-20" transform="translate(393.023438 0)"/>
      <use xlink:href="#DejaVuSans-45" transform="translate(424.810547 0)"/>
      <use xlink:href="#DejaVuSans-6c" transform="translate(487.994141 0)"/>
      <use xlink:href="#DejaVuSans-65" transform="translate(515.777344 0)"/>
      <use xlink:href="#DejaVuSans-6d" transform="translate(577.300781 0)"/>
      <use xlink:href="#DejaVuSans-65" transform="translate(674.712891 0)"/>
      <use xlink:href="#DejaVuSans-6e" transform="translate(736.236328 0)"/>
      <use xlink:href="#DejaVuSans-74" transform="translate(799.615234 0)"/>
      <use xlink:href="#DejaVuSans-61" transform="translate(838.824219 0)"/>
      <use xlink:href="#DejaVuSans-72" transform="translate(900.103516 0)"/>
      <use xlink:href="#DejaVuSans-79" transform="translate(941.216797 0)"/>
     </g>
    </g>
    <g id="line2d_30">
     <path d="M 621.31 365.738438 
L 631.31 365.738438 
L 641.31 365.738438 
" style="fill: none; stroke: #8c564b; stroke-width: 1.5; stroke-linecap: square"/>
     <g>
      <use xlink:href="#mf12c696209" x="631.31" y="365.738438" style="fill: #8c564b; stroke: #8c564b"/>
     </g>
    </g>
    <g id="text_22">
     <!-- Snoqualmie Elementary -->
     <g transform="translate(649.31 369.238438) scale(0.1 -0.1)">
      <use xlink:href="#DejaVuSans-53"/>
      <use xlink:href="#DejaVuSans-6e" transform="translate(63.476562 0)"/>
      <use xlink:href="#DejaVuSans-6f" transform="translate(126.855469 0)"/>
      <use xlink:href="#DejaVuSans-71" transform="translate(188.037109 0)"/>
      <use xlink:href="#DejaVuSans-75" transform="translate(251.513672 0)"/>
      <use xlink:href="#DejaVuSans-61" transform="translate(314.892578 0)"/>
      <use xlink:href="#DejaVuSans-6c" transform="translate(376.171875 0)"/>
      <use xlink:href="#DejaVuSans-6d" transform="translate(403.955078 0)"/>
      <use xlink:href="#DejaVuSans-69" transform="translate(501.367188 0)"/>
      <use xlink:href="#DejaVuSans-65" transform="translate(529.150391 0)"/>
      <use xlink:href="#DejaVuSans-20" transform="translate(590.673828 0)"/>
      <use xlink:href="#DejaVuSans-45" transform="translate(622.460938 0)"/>
      <use xlink:href="#DejaVuSans-6c" transform="translate(685.644531 0)"/>
      <use xlink:href="#DejaVuSans-65" transform="translate(713.427734 0)"/>
      <use xlink:href="#DejaVuSans-6d" transform="translate(774.951172 0)"/>
      <use xlink:href="#DejaVuSans-65" transform="translate(872.363281 0)"/>
      <use xlink:href="#DejaVuSans-6e" transform="translate(933.886719 0)"/>
      <use xlink:href="#DejaVuSans-74" transform="translate(997.265625 0)"/>
      <use xlink:href="#DejaVuSans-61" transform="translate(1036.474609 0)"/>
      <use xlink:href="#DejaVuSans-72" transform="translate(1097.753906 0)"/>
      <use xlink:href="#DejaVuSans-79" transform="translate(1138.867188 0)"/>
     </g>
    </g>
    <g id="line2d_31">
     <path d="M 621.31 380.416563 
L 631.31 380.416563 
L 641.31 380.416563 
" style="fill: none; stroke: #e377c2; stroke-width: 1.5; stroke-linecap: square"/>
     <g>
      <use xlink:href="#m12428ec841" x="631.31" y="380.416563" style="fill: #e377c2; stroke: #e377c2"/>
     </g>
    </g>
    <g id="text_23">
     <!-- Snoqualmie Parent Partnership Program -->
     <g transform="translate(649.31 383.916563) scale(0.1 -0.1)">
      <use xlink:href="#DejaVuSans-53"/>
      <use xlink:href="#DejaVuSans-6e" transform="translate(63.476562 0)"/>
      <use xlink:href="#DejaVuSans-6f" transform="translate(126.855469 0)"/>
      <use xlink:href="#DejaVuSans-71" transform="translate(188.037109 0)"/>
      <use xlink:href="#DejaVuSans-75" transform="translate(251.513672 0)"/>
      <use xlink:href="#DejaVuSans-61" transform="translate(314.892578 0)"/>
      <use xlink:href="#DejaVuSans-6c" transform="translate(376.171875 0)"/>
      <use xlink:href="#DejaVuSans-6d" transform="translate(403.955078 0)"/>
      <use xlink:href="#DejaVuSans-69" transform="translate(501.367188 0)"/>
      <use xlink:href="#DejaVuSans-65" transform="translate(529.150391 0)"/>
      <use xlink:href="#DejaVuSans-20" transform="translate(590.673828 0)"/>
      <use xlink:href="#DejaVuSans-50" transform="translate(622.460938 0)"/>
      <use xlink:href="#DejaVuSans-61" transform="translate(678.263672 0)"/>
      <use xlink:href="#DejaVuSans-72" transform="translate(739.542969 0)"/>
      <use xlink:href="#DejaVuSans-65" transform="translate(778.40625 0)"/>
      <use xlink:href="#DejaVuSans-6e" transform="translate(839.929688 0)"/>
      <use xlink:href="#DejaVuSans-74" transform="translate(903.308594 0)"/>
      <use xlink:href="#DejaVuSans-20" transform="translate(942.517578 0)"/>
      <use xlink:href="#DejaVuSans-50" transform="translate(974.304688 0)"/>
      <use xlink:href="#DejaVuSans-61" transform="translate(1030.107422 0)"/>
      <use xlink:href="#DejaVuSans-72" transform="translate(1091.386719 0)"/>
      <use xlink:href="#DejaVuSans-74" transform="translate(1132.5 0)"/>
      <use xlink:href="#DejaVuSans-6e" transform="translate(1171.708984 0)"/>
      <use xlink:href="#DejaVuSans-65" transform="translate(1235.087891 0)"/>
      <use xlink:href="#DejaVuSans-72" transform="translate(1296.611328 0)"/>
      <use xlink:href="#DejaVuSans-73" transform="translate(1337.724609 0)"/>
      <use xlink:href="#DejaVuSans-68" transform="translate(1389.824219 0)"/>
      <use xlink:href="#DejaVuSans-69" transform="translate(1453.203125 0)"/>
      <use xlink:href="#DejaVuSans-70" transform="translate(1480.986328 0)"/>
      <use xlink:href="#DejaVuSans-20" transform="translate(1544.462891 0)"/>
      <use xlink:href="#DejaVuSans-50" transform="translate(1576.25 0)"/>
      <use xlink:href="#DejaVuSans-72" transform="translate(1634.802734 0)"/>
      <use xlink:href="#DejaVuSans-6f" transform="translate(1673.666016 0)"/>
      <use xlink:href="#DejaVuSans-67" transform="translate(1734.847656 0)"/>
      <use xlink:href="#DejaVuSans-72" transform="translate(1798.324219 0)"/>
      <use xlink:href="#DejaVuSans-61" transform="translate(1839.4375 0)"/>
      <use xlink:href="#DejaVuSans-6d" transform="translate(1900.716797 0)"/>
     </g>
    </g>
    <g id="line2d_32">
     <path d="M 621.31 395.094688 
L 631.31 395.094688 
L 641.31 395.094688 
" style="fill: none; stroke: #7f7f7f; stroke-width: 1.5; stroke-linecap: square"/>
     <g>
      <use xlink:href="#mf8ac314b72" x="631.31" y="395.094688" style="fill: #7f7f7f; stroke: #7f7f7f"/>
     </g>
    </g>
    <g id="text_24">
     <!-- Meadowbrook School -->
     <g transform="translate(649.31 398.594688) scale(0.1 -0.1)">
      <defs>
       <path id="DejaVuSans-4d" d="M 628 4666 
L 1569 4666 
L 2759 1491 
L 3956 4666 
L 4897 4666 
L 4897 0 
L 4281 0 
L 4281 4097 
L 3078 897 
L 2444 897 
L 1241 4097 
L 1241 0 
L 628 0 
L 628 4666 
z
" transform="scale(0.015625)"/>
       <path id="DejaVuSans-6b" d="M 581 4863 
L 1159 4863 
L 1159 1991 
L 2875 3500 
L 3609 3500 
L 1753 1863 
L 3688 0 
L 2938 0 
L 1159 1709 
L 1159 0 
L 581 0 
L 581 4863 
z
" transform="scale(0.015625)"/>
      </defs>
      <use xlink:href="#DejaVuSans-4d"/>
      <use xlink:href="#DejaVuSans-65" transform="translate(86.279297 0)"/>
      <use xlink:href="#DejaVuSans-61" transform="translate(147.802734 0)"/>
      <use xlink:href="#DejaVuSans-64" transform="translate(209.082031 0)"/>
      <use xlink:href="#DejaVuSans-6f" transform="translate(272.558594 0)"/>
      <use xlink:href="#DejaVuSans-77" transform="translate(333.740234 0)"/>
      <use xlink:href="#DejaVuSans-62" transform="translate(415.527344 0)"/>
      <use xlink:href="#DejaVuSans-72" transform="translate(479.003906 0)"/>
      <use xlink:href="#DejaVuSans-6f" transform="translate(517.867188 0)"/>
      <use xlink:href="#DejaVuSans-6f" transform="translate(579.048828 0)"/>
      <use xlink:href="#DejaVuSans-6b" transform="translate(640.230469 0)"/>
      <use xlink:href="#DejaVuSans-20" transform="translate(698.140625 0)"/>
      <use xlink:href="#DejaVuSans-53" transform="translate(729.927734 0)"/>
      <use xlink:href="#DejaVuSans-63" transform="translate(793.404297 0)"/>
      <use xlink:href="#DejaVuSans-68" transform="translate(848.384766 0)"/>
      <use xlink:href="#DejaVuSans-6f" transform="translate(911.763672 0)"/>
      <use xlink:href="#DejaVuSans-6f" transform="translate(972.945312 0)"/>
      <use xlink:href="#DejaVuSans-6c" transform="translate(1034.126953 0)"/>
     </g>
    </g>
    <g id="line2d_33">
     <path d="M 621.31 409.772813 
L 631.31 409.772813 
L 641.31 409.772813 
" style="fill: none; stroke: #bcbd22; stroke-width: 1.5; stroke-linecap: square"/>
     <g>
      <use xlink:href="#mc8aca24da6" x="631.31" y="409.772813" style="fill: #bcbd22; stroke: #bcbd22"/>
     </g>
    </g>
    <g id="text_25">
     <!-- Snoqualmie Access -->
     <g transform="translate(649.31 413.272813) scale(0.1 -0.1)">
      <defs>
       <path id="DejaVuSans-41" d="M 2188 4044 
L 1331 1722 
L 3047 1722 
L 2188 4044 
z
M 1831 4666 
L 2547 4666 
L 4325 0 
L 3669 0 
L 3244 1197 
L 1141 1197 
L 716 0 
L 50 0 
L 1831 4666 
z
" transform="scale(0.015625)"/>
      </defs>
      <use xlink:href="#DejaVuSans-53"/>
      <use xlink:href="#DejaVuSans-6e" transform="translate(63.476562 0)"/>
      <use xlink:href="#DejaVuSans-6f" transform="translate(126.855469 0)"/>
      <use xlink:href="#DejaVuSans-71" transform="translate(188.037109 0)"/>
      <use xlink:href="#DejaVuSans-75" transform="translate(251.513672 0)"/>
      <use xlink:href="#DejaVuSans-61" transform="translate(314.892578 0)"/>
      <use xlink:href="#DejaVuSans-6c" transform="translate(376.171875 0)"/>
      <use xlink:href="#DejaVuSans-6d" transform="translate(403.955078 0)"/>
      <use xlink:href="#DejaVuSans-69" transform="translate(501.367188 0)"/>
      <use xlink:href="#DejaVuSans-65" transform="translate(529.150391 0)"/>
      <use xlink:href="#DejaVuSans-20" transform="translate(590.673828 0)"/>
      <use xlink:href="#DejaVuSans-41" transform="translate(622.460938 0)"/>
      <use xlink:href="#DejaVuSans-63" transform="translate(689.119141 0)"/>
      <use xlink:href="#DejaVuSans-63" transform="translate(744.099609 0)"/>
      <use xlink:href="#DejaVuSans-65" transform="translate(799.080078 0)"/>
      <use xlink:href="#DejaVuSans-73" transform="translate(860.603516 0)"/>
      <use xlink:href="#DejaVuSans-73" transform="translate(912.703125 0)"/>
     </g>
    </g>
    <g id="line2d_34">
     <path d="M 621.31 424.450938 
L 631.31 424.450938 
L 641.31 424.450938 
" style="fill: none; stroke: #17becf; stroke-width: 1.5; stroke-linecap: square"/>
     <g>
      <use xlink:href="#m50844b5f84" x="631.31" y="424.450938" style="fill: #17becf; stroke: #17becf"/>
     </g>
    </g>
    <g id="text_26">
     <!-- Twin Falls Middle School -->
     <g transform="translate(649.31 427.950938) scale(0.1 -0.1)">
      <use xlink:href="#DejaVuSans-54"/>
      <use xlink:href="#DejaVuSans-77" transform="translate(44.583984 0)"/>
      <use xlink:href="#DejaVuSans-69" transform="translate(126.371094 0)"/>
      <use xlink:href="#DejaVuSans-6e" transform="translate(154.154297 0)"/>
      <use xlink:href="#DejaVuSans-20" transform="translate(217.533203 0)"/>
      <use xlink:href="#DejaVuSans-46" transform="translate(249.320312 0)"/>
      <use xlink:href="#DejaVuSans-61" transform="translate(297.714844 0)"/>
      <use xlink:href="#DejaVuSans-6c" transform="translate(358.994141 0)"/>
      <use xlink:href="#DejaVuSans-6c" transform="translate(386.777344 0)"/>
      <use xlink:href="#DejaVuSans-73" transform="translate(414.560547 0)"/>
      <use xlink:href="#DejaVuSans-20" transform="translate(466.660156 0)"/>
      <use xlink:href="#DejaVuSans-4d" transform="translate(498.447266 0)"/>
      <use xlink:href="#DejaVuSans-69" transform="translate(584.726562 0)"/>
      <use xlink:href="#DejaVuSans-64" transform="translate(612.509766 0)"/>
      <use xlink:href="#DejaVuSans-64" transform="translate(675.986328 0)"/>
      <use xlink:href="#DejaVuSans-6c" transform="translate(739.462891 0)"/>
      <use xlink:href="#DejaVuSans-65" transform="translate(767.246094 0)"/>
      <use xlink:href="#DejaVuSans-20" transform="translate(828.769531 0)"/>
      <use xlink:href="#DejaVuSans-53" transform="translate(860.556641 0)"/>
      <use xlink:href="#DejaVuSans-63" transform="translate(924.033203 0)"/>
      <use xlink:href="#DejaVuSans-68" transform="translate(979.013672 0)"/>
      <use xlink:href="#DejaVuSans-6f" transform="translate(1042.392578 0)"/>
      <use xlink:href="#DejaVuSans-6f" transform="translate(1103.574219 0)"/>
      <use xlink:href="#DejaVuSans-6c" transform="translate(1164.755859 0)"/>
     </g>
    </g>
   </g>
  </g>
 </g>
 <defs>
  <clipPath id="pca9d5044ba">
   <rect x="51.05" y="26.16" width="561.26" height="665.96"/>
  </clipPath>
 </defs>
</svg>
